<?xml version="1.0" encoding="UTF-8"?>
<svg xmlns="http://www.w3.org/2000/svg" xmlns:xlink="http://www.w3.org/1999/xlink" width="375pt" height="374.999991pt" viewBox="0 0 375 374.999991" version="1.2">
<defs>
<clipPath id="clip1">
  <path d="M 0 17.578125 L 188 17.578125 L 188 357.328125 L 0 357.328125 Z M 0 17.578125 "/>
</clipPath>
</defs>
<g id="surface1">
<rect x="0" y="0" width="375" height="374.999991" style="fill:rgb(100%,100%,100%);fill-opacity:1;stroke:none;"/>
<rect x="0" y="0" width="375" height="374.999991" style="fill:rgb(100%,100%,100%);fill-opacity:1;stroke:none;"/>
<rect x="0" y="0" width="375" height="374.999991" style="fill:rgb(100%,100%,100%);fill-opacity:1;stroke:none;"/>
<path style=" stroke:none;fill-rule:nonzero;fill:rgb(1.179504%,59.609985%,61.959839%);fill-opacity:1;" d="M 342.53125 155.285156 C 352.183594 155.285156 360.082031 147.390625 360.082031 137.738281 C 360.082031 128.089844 352.183594 120.195312 342.53125 120.195312 C 332.878906 120.195312 324.980469 128.089844 324.980469 137.738281 C 324.980469 147.390625 332.878906 155.285156 342.53125 155.285156 Z M 342.53125 131.890625 C 345.75 131.890625 348.382812 134.523438 348.382812 137.738281 C 348.382812 140.957031 345.75 143.589844 342.53125 143.589844 C 339.3125 143.589844 336.679688 140.957031 336.679688 137.738281 C 336.679688 134.523438 339.3125 131.890625 342.53125 131.890625 Z M 342.53125 131.890625 "/>
<path style=" stroke:none;fill-rule:nonzero;fill:rgb(1.179504%,59.609985%,61.959839%);fill-opacity:1;" d="M 278.179688 155.285156 C 291.050781 155.285156 301.578125 144.757812 301.578125 131.890625 C 301.578125 119.023438 291.050781 108.496094 278.179688 108.496094 C 265.308594 108.496094 254.777344 119.023438 254.777344 131.890625 C 254.777344 144.757812 265.308594 155.285156 278.179688 155.285156 Z M 278.179688 120.195312 C 284.613281 120.195312 289.878906 125.457031 289.878906 131.890625 C 289.878906 138.324219 284.613281 143.589844 278.179688 143.589844 C 271.742188 143.589844 266.476562 138.324219 266.476562 131.890625 C 266.476562 125.457031 271.742188 120.195312 278.179688 120.195312 Z M 278.179688 120.195312 "/>
<g clip-path="url(#clip1)" clip-rule="nonzero">
<path style=" stroke:none;fill-rule:nonzero;fill:rgb(1.179504%,59.609985%,61.959839%);fill-opacity:1;" d="M 2.632812 325.1875 C 36.855469 350.335938 73.421875 357.0625 102.964844 357.0625 C 136.308594 357.0625 160.589844 348.582031 162.34375 347.996094 C 163.804688 347.414062 164.976562 346.535156 165.5625 345.074219 C 191.011719 296.238281 189.253906 264.65625 184.28125 225.175781 C 181.066406 200.90625 170.242188 192.132812 155.324219 188.914062 L 155.324219 184.527344 C 155.324219 178.09375 151.8125 172.539062 146.546875 169.324219 L 146.546875 35.390625 C 146.546875 25.738281 138.652344 17.84375 128.996094 17.84375 C 119.34375 17.84375 111.445312 25.738281 111.445312 35.390625 L 111.445312 169.324219 C 106.183594 172.246094 102.671875 178.09375 102.671875 184.527344 L 102.671875 188.332031 C 74.882812 191.546875 69.617188 205.292969 68.742188 219.035156 C 63.476562 291.851562 6.433594 314.367188 4.09375 315.246094 C 2.046875 316.121094 0.585938 317.878906 0.292969 319.925781 C 0 321.972656 0.878906 324.019531 2.632812 325.1875 Z M 123.148438 35.390625 C 123.148438 32.171875 125.78125 29.539062 128.996094 29.539062 C 132.214844 29.539062 134.847656 32.171875 134.847656 35.390625 L 134.847656 166.984375 L 123.148438 166.984375 Z M 114.371094 184.527344 C 114.371094 181.3125 117.003906 178.679688 120.222656 178.679688 L 137.773438 178.679688 C 140.992188 178.679688 143.625 181.3125 143.625 184.527344 L 143.625 187.746094 C 137.773438 187.453125 131.921875 187.453125 125.488281 187.453125 C 122.269531 187.453125 118.757812 187.453125 115.25 187.453125 C 114.957031 187.453125 114.664062 187.453125 114.371094 187.453125 Z M 80.441406 219.621094 C 81.027344 210.847656 81.902344 199.148438 115.25 199.148438 C 118.757812 199.148438 122.269531 199.148438 125.488281 199.148438 C 156.203125 198.859375 169.070312 198.566406 172.582031 226.640625 C 177.554688 264.65625 179.015625 293.019531 156.203125 337.46875 C 149.472656 339.515625 127.828125 345.367188 100.332031 345.074219 C 111.445312 336.59375 127.242188 321.386719 137.1875 297.699219 C 138.359375 294.773438 136.894531 291.265625 133.96875 290.097656 C 131.046875 288.925781 127.535156 290.390625 126.363281 293.3125 C 112.03125 327.527344 82.78125 342.734375 82.195312 343.027344 C 81.609375 343.320312 81.316406 343.609375 81.027344 343.902344 C 73.714844 343.027344 65.816406 341.5625 58.210938 339.515625 C 67.277344 333.082031 81.902344 320.800781 93.019531 301.5 C 94.480469 298.578125 93.605469 295.066406 90.972656 293.605469 C 88.046875 292.144531 84.535156 293.019531 83.074219 295.652344 C 67.863281 322.265625 44.753906 334.253906 44.460938 334.253906 C 44.167969 334.253906 44.167969 334.546875 43.875 334.546875 C 35.101562 331.328125 26.324219 326.941406 17.84375 321.386719 C 36.269531 311.152344 75.761719 282.199219 80.441406 219.621094 Z M 80.441406 219.621094 "/>
</g>
<path style=" stroke:none;fill-rule:nonzero;fill:rgb(1.179504%,59.609985%,61.959839%);fill-opacity:1;" d="M 105.597656 222.542969 L 140.699219 222.542969 C 143.914062 222.542969 146.546875 219.914062 146.546875 216.695312 C 146.546875 213.480469 143.914062 210.847656 140.699219 210.847656 L 105.597656 210.847656 C 102.378906 210.847656 99.746094 213.480469 99.746094 216.695312 C 99.746094 219.914062 102.378906 222.542969 105.597656 222.542969 Z M 105.597656 222.542969 "/>
<path style=" stroke:none;fill-rule:nonzero;fill:rgb(1.179504%,59.609985%,61.959839%);fill-opacity:1;" d="M 195.984375 199.441406 L 203.589844 213.773438 L 211.777344 316.414062 C 213.535156 337.46875 231.375 354.140625 252.730469 354.140625 L 309.769531 354.140625 C 330.832031 354.140625 348.964844 337.46875 350.722656 316.414062 L 358.621094 219.035156 C 359.496094 217.867188 360.082031 216.402344 360.960938 215.234375 L 369.734375 196.8125 C 372.953125 193.59375 375 189.207031 375 184.527344 C 375 174.878906 367.101562 166.984375 357.449219 166.984375 L 328.199219 166.984375 C 328.199219 157.332031 320.300781 149.4375 310.648438 149.4375 C 300.996094 149.4375 293.097656 157.332031 293.097656 166.984375 L 262.675781 166.984375 C 260.042969 157.039062 250.976562 149.4375 240.152344 149.4375 C 229.328125 149.4375 220.261719 157.039062 217.628906 166.984375 L 205.050781 166.984375 C 195.398438 166.984375 187.5 174.878906 187.5 184.527344 C 187.5 190.667969 191.011719 196.226562 195.984375 199.441406 Z M 214.410156 202.074219 L 234.300781 202.074219 C 234.300781 210.554688 234.300781 220.207031 234.300781 229.855469 C 226.113281 224.59375 219.382812 218.160156 214.996094 210.847656 Z M 346.917969 215.527344 C 341.945312 222.253906 335.511719 228.101562 328.199219 233.074219 C 328.199219 222.542969 328.199219 211.726562 328.199219 202.074219 L 348.089844 202.074219 Z M 357.15625 178.679688 C 360.375 178.679688 363.007812 181.3125 363.007812 184.527344 C 363.007812 187.746094 360.375 190.378906 357.15625 190.378906 L 327.90625 190.378906 C 327.90625 185.699219 327.90625 181.605469 327.90625 178.679688 Z M 322.347656 290.679688 C 325.566406 290.679688 328.199219 288.050781 328.199219 284.832031 C 328.199219 284.539062 328.199219 267.285156 328.199219 246.230469 C 334.339844 242.722656 340.191406 238.628906 345.457031 233.949219 L 339.019531 315.246094 C 337.851562 330.453125 324.980469 342.148438 309.769531 342.148438 L 252.4375 342.148438 C 237.226562 342.148438 224.355469 330.453125 223.1875 315.246094 L 216.457031 230.441406 C 221.722656 235.410156 227.867188 239.507812 234.300781 243.308594 C 234.300781 266.117188 234.300781 285.417969 234.59375 285.710938 C 235.179688 288.34375 237.519531 290.679688 240.445312 290.679688 C 241.613281 290.679688 241.90625 290.972656 243.371094 292.144531 C 245.417969 293.898438 248.34375 296.53125 253.898438 296.53125 C 259.457031 296.53125 262.382812 293.898438 264.429688 292.144531 C 265.894531 290.972656 266.1875 290.679688 267.355469 290.679688 C 268.527344 290.679688 268.816406 290.972656 270.28125 292.144531 C 272.328125 293.898438 275.253906 296.53125 280.8125 296.53125 C 286.367188 296.53125 289.292969 293.898438 291.339844 292.144531 C 292.804688 290.972656 293.097656 290.679688 294.265625 290.679688 C 295.4375 290.679688 295.730469 290.972656 297.191406 292.144531 C 299.238281 293.898438 302.164062 296.53125 307.722656 296.53125 C 313.28125 296.53125 316.207031 293.898438 318.253906 292.144531 C 320.886719 290.972656 321.179688 290.679688 322.347656 290.679688 Z M 246.003906 279.859375 L 246.003906 248.863281 C 259.164062 254.417969 273.5 257.34375 285.492188 257.34375 C 295.730469 257.34375 306.257812 255.296875 316.207031 251.496094 L 316.207031 280.152344 C 314.15625 281.03125 312.695312 282.199219 311.816406 283.078125 C 310.355469 284.246094 310.0625 284.539062 308.890625 284.539062 C 307.722656 284.539062 307.429688 284.246094 305.96875 283.078125 C 303.917969 281.324219 300.996094 278.691406 295.4375 278.691406 C 289.878906 278.691406 286.953125 281.324219 284.90625 283.078125 C 283.445312 284.246094 283.152344 284.539062 281.980469 284.539062 C 280.8125 284.539062 280.519531 284.246094 279.054688 283.078125 C 277.007812 281.324219 274.082031 278.691406 268.527344 278.691406 C 262.96875 278.691406 260.042969 281.324219 257.996094 283.078125 C 256.53125 284.246094 256.242188 284.539062 255.070312 284.539062 C 253.898438 284.539062 253.609375 284.246094 252.144531 283.078125 C 249.804688 282.199219 248.34375 281.03125 246.003906 279.859375 Z M 310.355469 161.132812 C 313.574219 161.132812 316.207031 163.765625 316.207031 166.984375 L 304.503906 166.984375 C 304.503906 163.765625 307.136719 161.132812 310.355469 161.132812 Z M 316.207031 178.679688 L 316.207031 239.214844 C 306.550781 243.308594 296.023438 245.9375 285.492188 245.9375 C 273.207031 245.9375 258.871094 242.429688 246.003906 236.289062 L 246.003906 178.679688 Z M 240.152344 161.132812 C 244.539062 161.132812 248.050781 163.472656 250.097656 166.984375 L 229.914062 166.984375 C 231.960938 163.472656 235.765625 161.132812 240.152344 161.132812 Z M 205.050781 178.679688 L 234.300781 178.679688 C 234.300781 181.605469 234.300781 185.699219 234.300781 190.378906 L 205.050781 190.378906 C 201.832031 190.378906 199.199219 187.746094 199.199219 184.527344 C 199.199219 181.3125 201.832031 178.679688 205.050781 178.679688 Z M 205.050781 178.679688 "/>
</g>
</svg>
